<svg fill="none" height="30" viewBox="0 0 30 30" width="30" xmlns="http://www.w3.org/2000/svg" xmlns:xlink="http://www.w3.org/1999/xlink"><linearGradient id="a" gradientTransform="matrix(30.5999592 30.30000501 -30.30000501 30.5999592 0 0)" gradientUnits="userSpaceOnUse" x2="1"><stop offset="0" stop-color="#5334f5"/><stop offset="1" stop-color="#7b42f6"/></linearGradient><linearGradient id="b" gradientTransform="matrix(30.0674 0 0 36.3279 0 15)" gradientUnits="userSpaceOnUse" x2="1"><stop offset="0" stop-color="#4899f7"/><stop offset="1" stop-color="#2457f5"/></linearGradient><linearGradient id="c" gradientTransform="matrix(17.58338677 17.26798021 -12.57334225 24.14867653 0 0)" gradientUnits="userSpaceOnUse" x2="1"><stop offset="0" stop-color="#9de1e5"/><stop offset="1" stop-color="#b8dfb2"/></linearGradient><mask id="d" height="30" maskUnits="userSpaceOnUse" width="30" x="0" y="0"><path clip-rule="evenodd" d="m0 0h15c8.2843 0 15 6.71573 15 15 0 8.2843-6.7157 15-15 15h-15z" fill="#fff" fill-rule="evenodd"/></mask><path clip-rule="evenodd" d="m0 0h15c8.2843 0 15 6.71573 15 15 0 8.2843-6.7157 15-15 15h-15z" fill="url(#a)" fill-rule="evenodd"/><g mask="url(#d)"><path clip-rule="evenodd" d="m0 0c8.28427 0 15 6.71573 15 15 0 8.2843-6.71573 15-15 15z" fill="#fff" fill-rule="evenodd" transform="translate(15.1499)"/></g><g clip-rule="evenodd" fill-rule="evenodd"><path d="m0 15 15-15c3.7603 0 7.1974 1.38364 9.83 3.66956-.0006.00544-11.33 11.33044-11.33 11.33044s11.33 11.325 11.3294 11.3309c-2.6325 2.2856-6.0694 3.6691-9.8294 3.6691z" fill="url(#b)"/><path d="m11.3303 0c3.1671 2.7502 5.1697 6.80631 5.1697 11.3302 0 4.5241-2.0029 8.5804-5.1703 11.3306.0006-.0056-11.3297-11.3306-11.3297-11.3306z" fill="url(#c)" transform="translate(13.5 3.66983)"/></g></svg>